<svg width="80" height="815" viewBox="0 0 80 815" fill="none" xmlns="http://www.w3.org/2000/svg">
<g clip-path="url(#clip0_830_815)">
<path d="M38.7028 185.17C39.0309 185.17 39.6275 185.349 40.4328 185.739C40.761 185.529 41.1487 185.439 41.5962 185.439C44.6983 186.487 46.2793 188.134 46.2793 190.439V191.307L45.4142 191.906H44.8177C41.6856 190.14 39.8363 189.271 39.2695 189.271C38.2255 189.271 37.5394 189.661 37.2412 190.439V191.008C37.2412 191.756 39.4783 192.415 43.9526 193.044C46.1003 194.78 47.1443 195.858 47.1443 196.247C47.7111 197.265 48.0093 198.253 48.0093 199.181V199.45C48.0093 201.546 47.4426 202.893 46.2793 203.552L44.8177 204.989L43.3561 204.72C43.3561 205.199 42.491 205.678 40.7311 206.157C36.2568 204.929 34.0197 203.762 34.0197 202.654C33.0353 202.055 32.558 201.367 32.558 200.588L34.6162 197.954H34.8847C35.2426 197.954 36.406 199.031 38.3747 201.187C38.7923 201.396 39.6573 201.576 40.9996 201.756C42.9385 201.187 43.893 200.409 43.893 199.421C43.893 198.043 41.4768 197.175 36.6148 196.786C35.4216 196.786 33.96 195.618 32.2299 193.283C32.2299 192.595 32.1404 191.696 31.9316 190.679C32.7967 187.924 33.8407 186.577 35.1233 186.577C35.1233 186.068 36.2866 185.589 38.6133 185.14L38.7028 185.17Z" fill="#D3C6A0"/>
<path d="M39.9855 243.131H40.8505C42.7596 244.388 44.7283 248.879 46.697 256.603C47.8603 258.938 48.427 260.615 48.427 261.573C48.1884 263.339 47.8006 264.207 47.2637 264.207H46.3987C44.3703 263.339 42.9982 262.561 42.3121 261.872L41.7454 261.004C37.6588 261.004 35.6007 261.782 35.6007 263.339C35.6007 263.489 34.9146 264.147 33.5723 265.375H33.274C32.1107 264.686 31.5439 263.788 31.5439 262.74V262.441C31.5439 260.225 32.7073 256.034 35.0339 249.867C35.6007 248.669 36.1972 247.023 36.764 244.897C38.1958 243.729 39.2696 243.131 39.9855 243.131ZM38.2554 254.567V254.837C38.2554 256.004 38.8222 256.603 39.9855 256.603C40.9698 256.274 41.4471 255.765 41.4471 255.136C40.8505 253.519 40.3733 252.441 39.9855 251.903C38.8222 252.382 38.2554 253.28 38.2554 254.537V254.567Z" fill="#D3C6A0"/>
<path d="M33.8711 302.738H34.4677C35.6609 302.738 37.1225 304.115 38.8525 306.84C39.8071 308.366 40.6721 310.133 41.4775 312.109C42.3425 313.097 42.8198 313.576 42.9391 313.576C43.3865 313.576 43.6848 312.318 43.8041 309.774C43.4163 309.115 43.2374 308.546 43.2374 308.037V304.235C43.2374 303.966 43.7146 303.486 44.6691 302.798H45.564C46.6677 302.798 47.3537 304.834 47.5924 308.935C47.5924 309.145 47.5029 309.235 47.2941 309.235L47.8608 318.875C47.5924 321.599 47.0256 322.976 46.1308 322.976H45.2657C41.567 320.521 39.7176 318.366 39.7176 316.54C39.2403 316.54 38.6736 315.462 37.9875 313.336C37.3313 312.947 36.854 312.767 36.5259 312.767C36.5259 313.157 36.3171 313.336 35.9293 313.336L36.2276 316.24V316.54L35.3626 318.007L36.2276 319.444V321.479C36.2276 322.078 35.8398 322.378 35.0643 322.378C34.4677 321.988 33.8115 321.779 33.0359 321.779V321.479C33.0359 321.06 33.1254 320.671 33.3342 320.342C32.5587 319.084 32.1709 317.917 32.1709 316.839C32.1709 316.629 32.2604 316.33 32.4692 315.971L32.1709 313.336C32.1709 312.528 32.2604 311.45 32.4692 310.103C32.2604 308.995 32.1709 307.438 32.1709 305.403C33.0359 303.666 33.6325 302.798 33.901 302.798L33.8711 302.738Z" fill="#D3C6A0"/>
<path d="M38.7028 360.879C39.0309 360.879 39.6275 361.058 40.4328 361.447C40.761 361.238 41.1487 361.148 41.5962 361.148C44.6983 362.196 46.2793 363.842 46.2793 366.148V367.016L45.4142 367.615H44.8177C41.6856 365.848 39.8363 364.98 39.2695 364.98C38.2255 364.98 37.5394 365.369 37.2412 366.148V366.717C37.2412 367.465 39.4783 368.124 43.9526 368.752C46.1003 370.489 47.1443 371.567 47.1443 371.956C47.7111 372.974 48.0093 373.962 48.0093 374.89V375.159C48.0093 377.255 47.4426 378.602 46.2793 379.261L44.8177 380.698L43.3561 380.428C43.3561 380.907 42.491 381.386 40.7311 381.865C36.2568 380.638 34.0197 379.47 34.0197 378.363C33.0353 377.764 32.558 377.075 32.558 376.297L34.6162 373.662H34.8847C35.2426 373.662 36.406 374.74 38.3747 376.896C38.7923 377.105 39.6573 377.285 40.9996 377.464C42.9385 376.896 43.893 376.117 43.893 375.129C43.893 373.752 41.4768 372.884 36.6148 372.495C35.4216 372.495 33.96 371.327 32.2299 368.992C32.2299 368.303 32.1404 367.405 31.9316 366.387C32.7967 363.633 33.8407 362.286 35.1233 362.286C35.1233 361.777 36.2866 361.298 38.6133 360.849L38.7028 360.879Z" fill="#D3C6A0"/>
<path d="M34.8852 419.738C35.4818 419.738 35.9591 420.606 36.317 422.372V425.605L36.0187 427.342C36.2275 427.731 36.317 428.031 36.317 428.21L36.0187 429.378L36.317 431.114C36.1082 431.713 35.9292 432.012 35.7503 432.012C36.7943 434.347 38.1664 435.515 39.8368 435.515H41.2984C42.4617 435.515 43.0285 434.946 43.0285 433.779V429.378C43.0285 429.198 43.2074 428.42 43.5952 427.043V426.474C43.5952 425.815 43.5057 425.336 43.3268 425.007L43.5952 423.27C43.4163 422.252 43.3268 421.654 43.3268 421.504C43.7145 420.336 44.4901 419.767 45.6534 419.767C46.429 420.217 46.9957 422.372 47.3835 426.204C46.936 426.204 46.6378 426.683 46.5184 427.671C47.0554 428.629 47.4431 430.695 47.6818 433.809C47.6818 436.144 45.9219 437.91 42.4319 439.078C42.4319 439.347 41.1791 439.736 38.6437 440.245C37.3908 439.257 35.6309 438.299 33.3938 437.341C32.6182 432.91 32.2305 430.276 32.2305 429.438C32.4393 426.773 32.5288 424.917 32.5288 423.869C32.5288 423.719 32.4393 423.151 32.2305 422.133C32.7376 420.576 33.6026 419.797 34.8554 419.797L34.8852 419.738Z" fill="#D3C6A0"/>
<path d="M34.4667 477.728C36.0178 478.477 36.7934 479.435 36.7934 480.632V483.536C36.7934 484.704 37.6584 485.303 39.4183 485.303C40.2237 485.303 40.9992 485.392 41.7449 485.572C43.0872 485.153 43.7733 484.255 43.7733 482.937C43.3855 482.279 43.1767 481.71 43.1767 481.201V480.602C44.1611 478.656 44.8471 477.698 45.2349 477.698C47.1738 479.375 48.1283 480.932 48.1283 482.369C47.9195 484.404 47.83 485.572 47.83 485.871C48.0388 488.686 48.1283 490.242 48.1283 490.572L47.83 492.608C48.0388 492.937 48.1283 493.326 48.1283 493.775C47.2633 497.098 46.4877 498.745 45.8017 498.745C44.2506 498.745 43.475 497.757 43.475 495.841L43.7733 492.937C43.7733 491.44 42.7889 490.572 40.8799 490.302C38.5533 490.901 37.3601 491.769 37.3601 492.937C37.1513 492.937 37.0618 493.027 37.0618 493.206C37.2706 494.254 37.3601 495.152 37.3601 495.841C36.7934 498.176 35.6002 499.344 33.8702 499.344C33.6017 499.344 33.0051 498.745 32.1401 497.577C32.1401 496.2 32.0506 493.566 31.8418 489.704C32.0506 484.644 32.1401 481.231 32.1401 479.465C33.3034 478.297 34.079 477.728 34.4667 477.728Z" fill="#D3C6A0"/>
<path d="M39.8659 537.186H40.731C42.1031 537.994 42.7593 538.593 42.7593 538.922L42.461 540.389L43.9227 545.359H44.7877C45.4439 545.359 45.9212 543.323 46.2493 539.222C46.995 538.234 47.9495 537.635 49.1427 537.455C49.9182 538.294 50.306 539.072 50.306 539.791C50.306 541.228 49.7094 542.695 48.5461 544.192C49.1427 545.18 49.441 545.958 49.441 546.527C48.1583 551.227 47.174 553.862 46.5178 554.431C46.9055 554.49 47.1143 554.67 47.1143 554.999V555.299C46.816 556.287 45.5334 556.766 43.3261 556.766C42.819 556.766 42.1329 555.389 41.2977 552.664L40.4327 552.095C39.9256 552.095 39.2395 553.473 38.4043 556.197L36.9427 557.065H36.6743C35.1232 557.065 33.9598 555.419 33.1843 552.095C32.886 552.095 32.4982 551.706 32.021 550.928C32.0806 549.94 32.2596 549.461 32.5877 549.461C31.6332 548.144 31.1559 546.886 31.1559 545.659C31.5437 545.03 31.7227 544.551 31.7227 544.192C30.6787 544.192 29.9926 543.024 29.6943 540.689V540.389C30.0821 538.414 30.5594 537.455 31.1559 537.455H31.4244C31.7227 537.455 32.021 537.845 32.3193 538.623L32.886 538.354C33.4826 538.354 34.1686 540.389 34.9144 544.491C35.6303 545.868 36.1075 546.527 36.376 546.527C36.7638 546.048 37.3305 543.922 38.106 540.09C38.8219 538.174 39.4185 537.216 39.8659 537.186Z" fill="#D3C6A0"/>
<path d="M39.9855 594.578H40.8505C42.7596 595.836 44.7283 600.326 46.697 608.05C47.8603 610.386 48.427 612.062 48.427 613.02C48.1884 614.787 47.8006 615.655 47.2637 615.655H46.3987C44.3703 614.787 42.9982 614.008 42.3121 613.32L41.7454 612.451C37.6588 612.451 35.6007 613.23 35.6007 614.787C35.6007 614.936 34.9146 615.595 33.5723 616.822H33.274C32.1107 616.134 31.5439 615.236 31.5439 614.188V613.888C31.5439 611.673 32.7073 607.482 35.0339 601.314C35.6007 600.117 36.1972 598.47 36.764 596.344C38.1958 595.177 39.2696 594.578 39.9855 594.578ZM38.2554 606.015V606.284C38.2554 607.452 38.8222 608.05 39.9855 608.05C40.9698 607.721 41.4471 607.212 41.4471 606.583C40.8505 604.967 40.3733 603.889 39.9855 603.35C38.8222 603.829 38.2554 604.727 38.2554 605.985V606.015Z" fill="#D3C6A0"/>
<path d="M46.9943 664.155C46.9943 664.155 46.8154 664.754 46.4276 665.652L46.8154 666.401C46.01 667.149 45.5626 667.508 45.5029 667.508C44.9958 667.508 44.4589 666.401 43.8325 664.155C43.8325 663.796 43.7132 663.586 43.4745 663.586H41.9831C41.1181 663.347 40.611 663.197 40.4917 663.197H40.1337C38.9107 663.437 38.2247 663.586 38.0755 663.586H35.6594C34.6751 663.586 34.168 663.077 34.168 662.089V661.91C34.168 661.341 35.4208 660.952 37.8966 660.802C38.1352 660.922 38.3142 660.982 38.4633 660.982L39.388 660.802L39.7459 660.982C40.8496 660.832 41.5357 660.682 41.8041 660.593L42.9078 660.772H43.0868C43.2657 660.772 43.6237 660.383 44.2203 659.634L44.0413 658.317C44.787 657.569 45.4134 657.209 45.8907 657.209C46.5171 657.569 46.8154 658.018 46.8154 658.527C46.8154 658.886 46.7557 659.096 46.6364 659.096L46.8154 660.982V663.047L46.9943 664.155Z" fill="#D3C6A0"/>
<path d="M46.9945 673.526C46.726 673.915 46.6067 674.244 46.6067 674.454L46.7857 676.669C46.2786 677.897 45.8908 678.526 45.6522 678.555H45.2943C44.3397 677.687 43.773 677.238 43.6238 677.238L43.8028 675.562C43.8028 675.562 43.7432 675.113 43.6238 674.454C43.8625 674.035 44.0116 673.676 44.0116 673.316V673.137C44.0116 672.717 43.3852 672.478 42.1622 672.388L41.7745 672.957V673.705C41.7745 674.334 41.8341 675.262 41.9534 676.52L41.2077 677.088H40.283L38.9706 675.981L39.1495 674.663V673.945C39.1495 673.167 38.7319 672.628 37.8371 672.268C36.972 672.268 36.5246 673.586 36.5246 676.19C36.5246 678.046 36.286 678.975 35.7789 678.975H34.6454C34.6454 678.975 34.198 678.466 33.7207 677.478C33.7207 676.46 33.7804 675.651 33.8997 675.053C33.7804 674.274 33.7207 673.406 33.7207 672.448C33.9593 672.029 34.0786 671.729 34.0786 671.52L33.8997 670.592C34.0786 670.592 34.3769 670.292 34.8244 669.664C36.286 669.784 37.33 669.843 37.9862 669.843H40.9393L41.864 669.664C41.864 669.873 42.1026 670.113 42.6097 670.412C42.8483 669.843 43.0869 669.544 43.3554 669.484C45.5925 669.484 46.6962 670.292 46.6962 671.909C46.6962 672.358 46.7559 672.927 46.8752 673.586L46.9945 673.526Z" fill="#D3C6A0"/>
<path d="M47.5314 685.98V686.549C46.726 687.777 43.8625 689.034 38.9706 690.291C37.4791 691.04 36.4351 691.399 35.8087 691.399C34.6752 691.249 34.1383 691.01 34.1383 690.651V690.082C34.705 688.794 35.1823 687.926 35.6297 687.477L36.1965 687.118C36.1965 684.483 35.6894 683.196 34.705 683.196C34.6156 683.196 34.198 682.777 33.3926 681.879V681.699C33.84 680.951 34.3769 680.591 35.063 680.591H35.242C36.6439 680.591 39.2987 681.34 43.2361 682.837C43.9818 683.196 45.0556 683.585 46.3979 683.944C47.1436 684.873 47.5314 685.561 47.5314 686.01V685.98ZM40.283 684.873H40.104C39.3583 684.873 38.9706 685.232 38.9706 685.98C39.1794 686.609 39.5075 686.908 39.8952 686.908C40.9393 686.519 41.5955 686.22 41.9534 685.98C41.6551 685.232 41.0884 684.873 40.283 684.873Z" fill="#D3C6A0"/>
<path d="M47.1735 701.818C46.6962 702.806 46.0996 703.285 45.3241 703.285H43.4747C42.729 703.285 42.3412 703.854 42.3412 704.961C42.3412 705.47 42.2815 705.979 42.1622 706.458C42.4307 707.326 42.9974 707.776 43.8326 707.776C44.2502 707.536 44.6082 707.386 44.9363 707.386H45.3241C46.5471 708.015 47.1735 708.464 47.1735 708.704C46.0996 709.931 45.1153 710.56 44.2204 710.56C42.9378 710.44 42.1921 710.38 41.9833 710.38C40.1935 710.5 39.2092 710.56 39.0004 710.56L37.6879 710.38C37.4791 710.5 37.2405 710.56 36.9422 710.56C34.8244 710.021 33.7803 709.512 33.7803 709.063C33.7803 708.075 34.4068 707.566 35.6297 707.566L37.4791 707.746C38.4336 707.746 38.9706 707.117 39.1495 705.889C38.7618 704.393 38.2248 703.644 37.4791 703.644C37.4791 703.524 37.4195 703.464 37.3001 703.464C36.6141 703.584 36.0772 703.644 35.6297 703.644C34.1383 703.285 33.3926 702.536 33.3926 701.399C33.3926 701.219 33.7803 700.86 34.5261 700.291C35.3911 700.291 37.0615 700.231 39.5373 700.111C42.7588 700.231 44.9363 700.291 46.04 700.291C46.7857 701.039 47.1436 701.518 47.1436 701.788L47.1735 701.818Z" fill="#D3C6A0"/>
<path d="M47.3529 717.027V718.344C47.3529 719.242 46.9055 720.05 46.0404 720.769C45.0561 722.386 43.2663 723.194 40.6414 723.194H38.7622C38.5236 722.984 37.6585 722.595 36.1671 722.056C36.1671 721.787 35.66 721.398 34.6757 720.949C34.0493 719.332 33.751 718.404 33.751 718.164V717.595C34.1984 715.739 34.4967 714.781 34.6757 714.781C35.7793 713.404 37.2708 712.716 39.15 712.716C39.15 712.416 40.1343 712.177 42.1329 711.967C45.3544 713.015 46.9651 714.392 46.9651 716.069C47.1739 716.069 47.2932 716.368 47.3231 716.997L47.3529 717.027ZM40.2835 714.781C38.3744 714.781 37.0321 715.949 36.1969 718.314V719.242C36.1969 719.422 36.3759 719.631 36.7637 719.811H38.4341C39.8062 720.17 40.6116 720.38 40.8502 720.38C43.326 719.781 44.5788 718.853 44.5788 717.595V716.847L43.0874 715.17C42.6996 715.17 41.7749 715.051 40.2835 714.811V714.781Z" fill="#D3C6A0"/>
<path d="M46.6059 726.517C46.6059 726.876 46.0392 727.206 44.9355 727.445H42.8773L41.7737 727.266C41.535 727.385 41.3561 727.445 41.2069 727.445L40.4612 727.266L39.3575 727.445C38.9698 727.325 38.7908 727.206 38.7908 727.086C37.2994 727.774 36.5835 728.643 36.5835 729.691V730.619C36.5835 731.367 36.9414 731.726 37.6871 731.726H40.491C40.491 731.726 41.1174 731.846 41.9825 732.086H42.3404C42.758 732.086 43.0563 732.026 43.2651 731.906L44.3688 732.086C45.025 731.966 45.3829 731.906 45.5023 731.906C46.248 732.145 46.6059 732.654 46.6059 733.403C46.3375 733.882 44.9653 734.271 42.5194 734.511C42.5194 734.211 42.2211 734.032 41.5947 733.942C40.9683 734.271 39.6857 734.541 37.6871 734.69C36.1957 734.69 35.092 733.583 34.3463 731.337C34.1673 731.337 33.9287 730.529 33.6006 728.912C34.227 728.104 34.8534 726.996 35.45 725.559C38.2837 725.05 39.9541 724.811 40.4612 724.811C42.1316 724.93 43.3248 724.99 43.981 724.99C44.0705 724.99 44.4284 724.93 45.0847 724.811C46.069 725.14 46.5761 725.709 46.5761 726.487L46.6059 726.517Z" fill="#D3C6A0"/>
<path d="M47.1735 741.157C47.1735 741.366 47.0542 741.755 46.8155 742.264C46.9348 742.474 46.9945 742.743 46.9945 743.013C46.3383 745.019 45.2644 746.007 43.8327 746.007H43.2659L42.8781 745.438V745.049C44.0116 743.043 44.5485 741.845 44.5485 741.486C44.5485 740.827 44.3099 740.378 43.8028 740.169H43.4449C42.9676 740.169 42.55 741.606 42.1324 744.48C41.0287 745.857 40.3427 746.546 40.0742 746.546C39.418 746.905 38.8214 747.114 38.195 747.114H38.016C36.7036 747.114 35.8087 746.755 35.3911 746.007L34.4664 745.079L34.6454 744.151C34.3471 744.151 34.019 743.582 33.7207 742.474C34.4963 739.6 35.242 738.163 35.928 738.163C36.3158 737.534 36.7334 737.235 37.2405 737.235L38.9109 738.552V738.732C38.9109 738.971 38.2248 739.72 36.8527 740.977C36.7334 741.247 36.6141 741.815 36.4948 742.654C36.8527 743.881 37.3598 744.51 37.9862 744.51C38.8513 744.51 39.418 742.953 39.6566 739.839C39.6566 739.091 40.4023 738.133 41.8938 737.055C42.3412 737.055 42.908 736.995 43.5642 736.875C45.2943 737.414 46.1891 738.103 46.1891 738.941C46.5172 738.941 46.8155 739.69 47.1138 741.187L47.1735 741.157Z" fill="#D3C6A0"/>
<path d="M46.9945 753.551C46.726 753.94 46.6067 754.27 46.6067 754.479L46.7857 756.695C46.2786 757.922 45.8908 758.551 45.6522 758.581H45.2943C44.3397 757.713 43.773 757.264 43.6238 757.264L43.8028 755.587C43.8028 755.587 43.7432 755.138 43.6238 754.479C43.8625 754.06 44.0116 753.701 44.0116 753.342V753.162C44.0116 752.743 43.3852 752.503 42.1622 752.414L41.7745 752.982V753.731C41.7745 754.36 41.8341 755.288 41.9534 756.545L41.2077 757.114H40.283L38.9706 756.006L39.1495 754.689V753.97C39.1495 753.192 38.7319 752.653 37.8371 752.294C36.972 752.294 36.5246 753.611 36.5246 756.216C36.5246 758.072 36.286 759 35.7789 759H34.6454C34.6454 759 34.198 758.491 33.7207 757.503C33.7207 756.485 33.7804 755.677 33.8997 755.078C33.7804 754.3 33.7207 753.431 33.7207 752.473C33.9593 752.054 34.0786 751.755 34.0786 751.545L33.8997 750.617C34.0786 750.617 34.3769 750.318 34.8244 749.689C36.286 749.809 37.33 749.869 37.9862 749.869H40.9393L41.864 749.689C41.864 749.899 42.1026 750.138 42.6097 750.438C42.8483 749.869 43.0869 749.569 43.3554 749.51C45.5925 749.51 46.6962 750.318 46.6962 751.935C46.6962 752.384 46.7559 752.952 46.8752 753.611L46.9945 753.551Z" fill="#D3C6A0"/>
<path d="M40.0167 31.7049C43.1225 37.316 44.7572 44.3052 42.1417 50.3757C40.7359 53.5586 39.0359 56.643 38.6763 60.1212C38.1859 64.3541 39.0359 68.7839 40.8013 72.6559C40.9321 72.9512 40.8013 73.3122 40.5071 73.4762C40.2128 73.6075 39.8532 73.4762 39.7224 73.2137C38.9051 71.5731 38.3166 69.8668 37.8916 68.0949C36.4858 62.3197 37.0743 57.4962 39.5917 52.1476C39.7878 51.7538 40.2455 50.7038 40.409 50.31C42.2398 46.2412 41.8802 41.5161 40.409 37.3816C39.8532 35.7737 39.1013 34.1331 38.2513 32.7221C37.5974 31.5736 39.2974 30.5236 40.0167 31.7049Z" fill="#D3C6A0"/>
<path d="M23.7356 57.3322C21.9048 58.0213 20.2374 59.3666 19.8778 61.4339C19.0605 65.0433 19.6163 68.8169 20.8586 72.3607C21.0548 72.8529 20.2701 73.181 20.074 72.6888C18.3086 68.5543 17.0008 62.9433 19.0278 58.6447C19.9759 57.0697 21.3163 56.0525 22.951 55.2978C24.3895 54.7071 25.2068 56.84 23.7356 57.365V57.3322Z" fill="#D3C6A0"/>
<path d="M31.8433 108.587C26.7105 115.576 15.6602 112.754 14.4179 104.157C13.5352 98.9395 17.5564 93.5909 22.82 93.0331C31.4183 91.983 36.9761 101.663 31.8433 108.587ZM30.8625 107.832C35.3088 101.991 30.274 93.5581 23.0815 94.7065C18.7661 95.2972 15.5294 99.5957 16.1833 103.894C17.1641 111.113 26.3836 113.607 30.8625 107.832Z" fill="#D3C6A0"/>
<path d="M56.592 31.3111C58.7171 34.8221 60.4825 39.055 59.2729 43.1895C58.8805 44.5677 58.1286 45.8802 56.9517 46.799C56.6901 46.9958 56.3632 46.9302 56.167 46.7005C55.9709 46.4708 56.0362 46.1099 56.2651 45.913C60.1556 42.2051 57.6709 36.069 55.1208 32.2955C54.467 31.3111 55.9382 30.3267 56.592 31.3111Z" fill="#D3C6A0"/>
<path d="M39.9837 138.676C17.9158 138.676 0 107.569 0 69.3746C0 31.1799 17.9485 0.0400391 39.9837 0.0400391C62.0188 0.0400391 79.9673 31.1471 79.9673 69.3418C79.9673 107.536 62.0188 138.643 39.9837 138.643V138.676ZM39.9837 1.25413C18.6024 1.25413 1.20964 31.8033 1.20964 69.3418C1.20964 106.88 18.6024 137.429 39.9837 137.429C61.3649 137.429 78.7577 106.88 78.7577 69.3418C78.7577 31.8033 61.3976 1.25413 39.9837 1.25413Z" fill="#D3C6A0"/>
<path d="M23.2776 31.9346C25.6969 36.43 30.1759 43.5833 24.8469 47.6522C22.7219 49.0303 20.041 48.8991 17.6871 48.9647C14.5813 48.9647 11.3447 48.7678 8.23882 48.4397L5.88492 48.21C4.64258 47.9147 2.28868 48.3741 2.38676 46.5037C2.45215 45.7162 3.26947 45.1584 4.02142 45.388C5.5253 45.7818 7.02918 46.1099 8.53306 46.4381C13.012 47.2584 17.6871 47.9803 22.2315 47.3897C27.5931 46.3724 26.4162 40.4004 24.2257 36.8238C23.4738 35.4784 22.6892 34.1331 21.7738 32.919C21.0872 31.9018 22.6238 30.9174 23.245 31.9674L23.2776 31.9346Z" fill="#D3C6A0"/>
<path d="M57.769 73.2793C55.644 69.7683 53.8786 62.976 55.3824 59.0712C57.7037 53.9195 64.2423 55.068 68.8193 55.068L78.2022 55.3305C78.7253 55.3305 79.1503 55.7898 79.1176 56.3149C79.1176 56.8399 78.6599 57.2664 78.1041 57.2336L68.7212 56.7742C64.7981 56.7742 58.8152 55.2976 56.6902 59.629C56.069 60.9415 56.1671 62.4509 56.2652 63.8947C56.494 66.8807 57.2786 69.998 58.7498 72.5903C59.2075 73.2793 58.194 73.9356 57.7363 73.2465L57.769 73.2793Z" fill="#D3C6A0"/>
<path d="M2.02731 85.2563C10.0698 81.45 18.7335 79.3499 27.4625 78.0702C31.8434 77.3811 36.2897 77.3155 40.7032 77.6764C46.7842 78.2343 52.767 79.2515 54.2055 86.2735C54.8593 89.5877 54.9247 93.0987 54.1401 96.4128C53.6824 98.5785 52.8978 100.613 52.3093 102.746C49.8246 111.769 47.1765 121.974 51.492 130.801C51.9497 131.687 52.5381 132.507 53.1593 133C53.6497 133.361 53.7805 134.083 53.3882 134.575C51.3285 136.806 48.615 129.981 48.3207 128.57C45.8034 119.809 48.19 110.719 50.6092 102.254C52.0804 97.7254 53.5843 93.0003 52.7343 88.2095C52.5381 86.7329 52.2112 85.1251 51.4266 83.8782C49.2361 80.1046 44.4302 79.9077 40.5398 79.514C31.9415 78.7593 23.3432 80.4656 15.1372 82.8609C11.0833 84.075 6.93127 85.6501 3.23695 87.6189C1.70037 88.4392 0.458037 86.1095 2.02731 85.2563Z" fill="#D3C6A0"/>
<path d="M27.7235 78.7265C28.0178 78.6609 28.0505 78.8249 28.1486 78.9234C30.7313 82.4672 34.0333 85.5845 37.8257 87.8158C41.7816 90.244 46.3913 90.933 50.9683 91.294C55.5781 91.6221 60.2205 91.4581 64.6667 90.3096C69.0149 89.1611 73.6573 87.9142 77.3844 85.4532C77.744 85.1579 78.2998 85.2563 78.5613 85.6501C78.8229 86.0439 78.7248 86.5689 78.3325 86.8314C76.2401 88.2095 73.9843 88.9971 71.7611 89.7518C69.5053 90.4737 67.2495 91.0971 64.961 91.6221C57.9974 93.23 50.8376 92.9018 43.8739 91.5237C37.1392 90.0143 31.2217 85.7485 27.0697 80.3015L26.8081 79.9406C26.3831 79.5468 27.1024 78.8249 27.5601 78.7921H27.7562L27.7235 78.7265Z" fill="#D3C6A0"/>
<path d="M22.6567 130.342C28.2145 125.026 35.3743 121.745 42.7956 120.071C48.3208 118.792 54.1728 118.267 59.7307 119.678C61.5942 120.104 63.3923 120.662 65.1904 121.384C65.5827 121.548 65.7789 122.007 65.6154 122.401C65.4519 122.828 64.9615 122.992 64.5692 122.828C62.9346 122.073 61.2018 121.449 59.4037 120.99C50.9035 118.792 41.8475 121.023 34.0012 124.534C30.3723 126.306 26.8741 128.8 24.0952 131.72C23.2125 132.737 21.6759 131.326 22.6567 130.342Z" fill="#D3C6A0"/>
<path d="M14.7447 17.0045C27.92 25.1422 45.0185 26.1922 59.1746 20.0889L62.1497 18.6451C63.0978 18.1201 64.0459 17.5623 64.994 17.0045C65.4844 16.6763 66.1383 16.8404 66.3998 17.3326C66.694 17.8248 66.4979 18.4811 65.9748 18.7436L62.9016 20.2202C50.511 25.7 36.1914 26.4547 23.3103 22.3202L20.1391 21.1717L17.0332 19.8592L13.9928 18.3498C13.0447 17.8576 13.8293 16.4138 14.7774 17.0045H14.7447Z" fill="#D3C6A0"/>
<path d="M27.4946 22.353C30.1428 21.3686 32.2678 19.1045 34.2621 17.1029C35.9621 15.2654 38.4795 12.6075 39.0353 10.5074C39.0353 10.5074 38.9699 6.89797 38.9699 6.86516C39.0026 5.42137 41.1276 5.45418 41.1276 6.89797L40.9969 10.5074V10.4418C40.9969 11.4262 41.9777 12.7387 42.8277 13.8544C43.7431 15.0029 44.7566 16.1185 45.7701 17.2014C47.797 19.1702 49.8894 21.5983 52.6356 22.353C53.2895 22.4515 53.1587 23.4031 52.5048 23.3374C49.3336 22.714 47.0124 20.2858 44.6912 18.2842C43.0238 16.6763 41.3238 15.0357 40.0161 13.0997C39.5584 12.4106 39.1007 11.5903 39.0026 10.5402V10.4746L38.9372 6.86516H41.095L40.9642 10.4746V10.5402C40.8007 11.6231 40.3103 12.3122 39.8853 13.0012C37.6622 16.1185 34.8179 18.7108 31.8101 21.0405C31.2216 21.4999 27.4619 24.1578 27.1023 22.9109C27.0369 22.6484 27.2004 22.353 27.4619 22.2874L27.4946 22.353Z" fill="#D3C6A0"/>
</g>
<defs>
<clipPath id="clip0_830_815">
<rect width="80" height="814" fill="white" transform="translate(0 0.0400391)"/>
</clipPath>
</defs>
</svg>
